<?xml version="1.0" encoding="UTF-8" ?>
<!DOCTYPE svg PUBLIC "-//W3C//DTD SVG 1.1//EN" "http://www.w3.org/Graphics/SVG/1.1/DTD/svg11.dtd">
<svg viewBox="0 0 1390 433" version="1.1" xmlns="http://www.w3.org/2000/svg">
<g id="#56534cff">
<path fill="#56534c" opacity="1.00" d=" M 908.45 10.50 C 916.74 6.67 925.39 3.67 934.02 0.71 C 936.65 0.04 941.53 -0.80 941.72 3.15 C 938.82 5.62 934.72 5.70 931.45 7.51 C 919.91 13.28 910.46 22.35 901.41 31.38 C 881.20 52.12 863.62 75.21 846.43 98.45 C 845.02 100.59 842.94 102.84 843.37 105.61 C 844.78 107.17 847.06 106.88 848.97 107.01 C 874.00 107.04 899.03 106.87 924.06 107.17 C 927.52 107.17 931.01 107.23 934.44 107.83 C 932.86 110.56 931.25 114.28 927.52 114.22 C 899.01 115.39 870.53 117.40 842.02 118.82 C 839.03 118.96 835.77 119.22 833.41 121.28 C 830.86 123.57 829.30 126.68 827.35 129.45 C 806.03 161.22 785.97 193.97 769.64 228.63 C 759.22 250.75 749.56 273.26 741.51 296.37 C 732.22 323.54 724.69 352.04 726.26 381.00 C 726.88 393.53 728.88 406.99 737.17 416.95 C 743.40 424.52 753.46 427.85 763.04 427.66 C 779.77 427.43 795.82 421.27 810.32 413.30 C 835.55 399.26 856.07 378.38 874.75 356.68 C 887.60 341.22 899.23 323.94 904.06 304.16 C 905.87 297.49 905.21 290.35 903.17 283.81 C 901.70 279.24 898.35 274.97 893.52 273.77 C 888.08 272.50 882.15 273.44 877.34 276.25 C 875.16 277.34 872.62 279.24 870.18 277.71 C 869.33 275.59 871.20 273.90 872.65 272.67 C 876.04 269.97 880.16 268.47 884.09 266.74 C 879.82 260.92 882.37 253.49 884.13 247.23 C 889.99 229.98 900.54 214.83 911.28 200.29 C 914.96 195.11 919.37 190.47 922.74 185.07 C 919.79 183.14 916.49 181.60 914.06 179.00 C 912.41 177.41 913.29 174.35 915.36 173.62 C 921.73 171.75 928.55 173.31 934.97 171.92 C 938.75 169.81 941.76 166.30 946.10 165.21 C 950.62 163.59 955.41 165.30 959.35 167.60 C 962.10 169.02 964.62 171.40 967.92 171.27 C 978.94 171.69 989.96 172.00 1000.99 172.26 C 1003.90 172.28 1006.81 172.67 1009.61 173.51 C 1006.74 176.27 1002.54 175.13 999.00 175.86 C 996.37 176.07 994.14 177.53 992.08 179.02 C 992.72 181.63 993.65 184.31 992.97 187.02 C 990.83 199.12 983.61 209.58 975.67 218.66 C 966.20 229.26 955.31 238.50 944.10 247.19 C 930.74 257.24 916.15 266.37 899.72 270.30 C 906.22 276.58 911.21 284.42 914.42 292.85 C 916.49 297.99 914.73 303.49 913.42 308.58 C 908.98 324.34 900.31 338.53 890.34 351.37 C 879.29 365.47 866.54 378.16 853.04 389.90 C 838.85 402.11 823.75 413.47 807.04 422.02 C 792.33 429.46 775.68 434.35 759.08 432.35 C 743.23 430.65 729.24 420.36 721.12 406.91 C 716.52 399.09 715.75 389.83 715.01 380.99 C 713.44 360.19 717.76 339.51 723.37 319.60 C 732.64 287.60 745.70 256.85 759.81 226.72 C 774.95 194.68 792.10 163.49 812.38 134.40 C 814.24 131.13 814.67 126.74 812.57 123.48 C 809.58 118.80 802.53 118.96 800.01 113.87 C 798.93 111.59 800.61 109.23 802.97 108.98 C 812.49 106.79 822.38 107.13 832.09 107.00 C 831.81 106.49 831.25 105.46 830.97 104.95 C 849.91 74.65 874.29 48.38 897.28 21.20 C 900.80 17.46 903.50 12.57 908.45 10.50 M 956.50 178.69 C 952.51 179.25 948.58 180.23 944.83 181.69 C 940.51 183.41 937.47 187.08 934.23 190.23 C 915.06 209.49 900.05 232.77 889.92 257.95 C 889.09 260.41 888.79 263.38 890.32 265.65 C 892.96 266.97 895.99 267.93 898.95 267.14 C 913.35 264.45 925.75 255.87 937.02 246.94 C 948.25 237.62 959.21 227.79 968.27 216.30 C 974.74 207.94 980.53 198.55 982.35 187.98 C 983.12 184.30 980.19 181.06 976.83 180.09 C 970.30 178.03 963.26 177.94 956.50 178.69 Z" />
<path fill="#56534c" opacity="1.00" d=" M 181.69 47.84 C 206.36 40.50 232.14 36.57 257.89 37.38 C 265.94 37.54 274.15 38.22 281.63 41.41 C 296.44 47.56 307.84 60.48 313.79 75.20 C 315.11 78.68 316.84 82.17 316.72 85.99 C 313.16 84.87 312.40 80.95 310.78 78.07 C 306.54 70.17 300.63 62.95 292.98 58.14 C 283.76 52.28 272.84 49.53 262.01 48.93 C 242.51 48.34 222.92 49.87 203.80 53.82 C 169.08 60.87 136.09 74.85 105.40 92.36 C 79.99 106.94 55.43 123.84 35.93 145.92 C 20.81 163.01 9.18 184.08 6.87 207.07 C 5.87 216.41 7.65 226.66 14.29 233.70 C 22.19 242.20 34.08 245.13 45.21 246.37 C 71.99 249.38 98.55 241.96 123.41 232.70 C 145.77 224.23 167.20 213.54 188.30 202.37 C 208.00 191.71 227.72 180.53 244.55 165.61 C 248.35 162.62 249.52 157.77 251.51 153.60 C 255.49 144.79 259.56 135.97 264.76 127.81 C 267.12 123.92 270.94 121.32 274.25 118.32 C 277.14 115.88 279.77 113.08 283.07 111.19 C 286.07 114.55 285.46 119.57 284.42 123.59 C 281.79 133.04 278.74 142.73 272.58 150.54 C 270.73 153.12 267.35 153.39 264.60 154.46 C 254.32 173.82 244.68 193.52 234.73 213.06 C 238.79 217.79 241.32 223.57 243.10 229.50 C 240.07 233.33 237.35 237.48 233.74 240.78 C 228.97 243.03 223.70 243.96 218.72 245.64 C 208.30 264.24 197.37 282.61 184.95 299.96 C 174.10 314.82 162.34 329.73 146.34 339.34 C 130.93 348.99 113.77 358.37 95.00 357.50 C 82.40 357.27 69.05 353.30 60.57 343.49 C 53.35 335.44 51.46 323.81 53.61 313.45 C 56.01 301.58 64.13 291.66 73.80 284.74 C 90.60 272.73 110.40 265.88 130.04 260.07 C 156.71 253.14 183.79 247.91 210.87 242.88 C 218.69 224.67 227.44 206.89 235.84 188.95 C 238.13 183.90 240.95 179.05 242.35 173.65 C 225.90 184.89 209.45 196.18 192.18 206.16 C 172.10 217.72 151.34 228.16 129.86 236.89 C 104.82 246.90 78.25 254.76 51.03 254.08 C 36.63 253.61 21.79 248.76 11.39 238.48 C 3.45 230.55 0.19 219.00 0.58 207.99 C 0.66 195.39 4.76 183.26 10.00 171.94 C 17.05 156.89 27.04 143.38 38.47 131.39 C 57.14 111.89 79.39 96.20 102.62 82.64 C 127.61 68.22 154.00 56.03 181.69 47.84 M 221.50 240.57 C 225.59 238.83 229.89 237.19 233.33 234.29 C 237.44 229.47 236.89 221.78 232.97 216.98 C 229.29 224.91 224.99 232.55 221.50 240.57 M 181.09 253.56 C 155.56 259.91 129.78 265.96 105.62 276.58 C 92.85 282.12 80.21 288.42 69.43 297.33 C 61.57 303.85 55.65 313.47 55.85 323.93 C 55.73 332.95 61.32 341.60 69.35 345.59 C 78.48 350.10 88.87 351.24 98.94 351.15 C 117.23 350.82 134.93 343.41 148.96 331.85 C 160.14 322.70 169.03 311.15 177.29 299.40 C 188.75 282.82 198.72 265.28 208.10 247.48 C 199.09 249.50 190.08 251.49 181.09 253.56 Z" />
<path fill="#56534c" opacity="1.00" d=" M 620.03 164.99 C 640.83 153.21 663.78 143.68 687.98 142.98 C 690.38 143.05 693.74 142.43 695.04 145.08 C 696.72 148.13 693.44 150.53 691.45 152.35 C 688.05 154.89 683.87 158.49 679.37 156.48 C 670.68 153.60 661.10 151.45 652.11 154.34 C 636.08 159.29 621.93 168.74 608.55 178.62 C 601.00 184.63 593.10 191.32 589.74 200.68 C 587.04 208.95 591.98 217.04 596.21 223.83 C 598.84 227.72 601.93 231.34 605.64 234.25 C 622.26 225.00 639.77 217.22 658.05 211.88 C 671.55 207.93 685.23 204.40 699.15 202.35 C 687.93 205.18 676.64 207.86 665.78 211.90 C 646.20 218.85 627.53 228.10 609.51 238.38 C 612.61 243.05 616.97 247.91 616.49 253.88 C 614.48 260.83 607.24 264.19 601.32 267.28 C 589.59 272.53 576.95 278.44 563.77 276.25 C 559.26 275.81 554.70 278.62 550.32 276.58 C 548.74 274.07 551.81 271.95 553.36 270.33 C 565.24 260.14 578.23 251.33 591.01 242.32 C 585.15 233.44 576.51 225.75 574.54 214.85 C 572.75 206.28 577.57 198.13 583.10 192.00 C 593.50 180.67 606.83 172.62 620.03 164.99 M 575.44 261.39 C 571.48 264.43 567.21 267.47 564.86 272.01 C 565.75 273.86 568.32 273.57 570.05 273.69 C 578.36 273.25 586.15 269.94 593.71 266.73 C 597.20 265.23 601.40 263.18 602.14 259.03 C 602.27 254.19 598.41 250.65 595.35 247.40 C 588.56 251.84 582.00 256.63 575.44 261.39 Z" />
<path fill="#56534c" opacity="1.00" d=" M 1121.62 170.54 C 1144.78 156.38 1170.39 144.14 1197.98 143.01 C 1200.67 143.13 1204.55 142.14 1206.07 145.14 C 1207.72 148.48 1203.98 150.91 1201.85 152.85 C 1198.76 154.99 1195.15 158.16 1191.15 156.70 C 1182.71 153.98 1173.61 151.60 1164.78 153.88 C 1153.90 156.85 1143.87 162.26 1134.40 168.28 C 1125.62 174.06 1116.78 179.97 1109.42 187.55 C 1103.78 193.38 1098.12 201.34 1100.48 209.89 C 1103.40 219.29 1108.99 228.03 1116.67 234.25 C 1133.52 224.83 1151.30 217.00 1169.86 211.64 C 1183.10 207.79 1196.52 204.35 1210.17 202.35 C 1194.16 206.12 1178.30 210.68 1163.14 217.16 C 1148.46 223.24 1134.30 230.51 1120.51 238.38 C 1123.62 243.06 1128.00 247.95 1127.48 253.93 C 1125.44 260.84 1118.23 264.19 1112.32 267.28 C 1100.60 272.53 1087.96 278.44 1074.79 276.25 C 1070.28 275.80 1065.74 278.60 1061.36 276.60 C 1059.68 274.13 1062.80 271.96 1064.34 270.34 C 1076.23 260.15 1089.22 251.33 1102.01 242.32 C 1096.15 233.42 1087.48 225.74 1085.53 214.81 C 1083.91 207.03 1087.82 199.45 1092.69 193.65 C 1100.72 184.16 1111.13 177.06 1121.62 170.54 M 1085.83 261.85 C 1081.80 264.77 1078.00 268.13 1075.42 272.43 C 1077.51 273.27 1079.73 273.96 1082.03 273.66 C 1090.48 272.87 1098.39 269.47 1106.10 266.11 C 1109.14 264.74 1112.50 262.63 1113.13 259.08 C 1113.30 254.21 1109.41 250.66 1106.35 247.40 C 1099.35 251.99 1092.58 256.91 1085.83 261.85 Z" />
<path fill="#56534c" opacity="1.00" d=" M 394.84 152.90 C 397.16 149.60 401.91 146.94 405.75 149.28 C 407.93 151.45 405.96 154.55 404.52 156.53 C 390.72 173.82 378.57 192.41 367.77 211.71 C 361.66 222.85 355.53 234.36 353.57 247.07 C 353.05 250.53 353.26 255.40 357.17 256.78 C 361.52 258.07 365.68 255.39 369.20 253.16 C 386.57 241.60 401.22 226.57 416.05 212.04 C 431.27 196.92 445.54 180.84 461.27 166.25 C 462.99 164.76 465.38 162.27 467.76 164.06 C 471.95 167.38 473.10 174.39 469.80 178.73 C 461.83 191.17 454.85 204.24 448.59 217.62 C 444.33 227.38 439.51 237.27 438.69 248.04 C 438.53 250.52 438.85 254.37 441.91 254.86 C 450.18 254.62 457.01 249.47 464.42 246.53 C 464.38 248.45 464.55 250.61 463.09 252.12 C 458.42 257.60 452.32 262.00 445.55 264.51 C 440.29 265.22 435.99 260.76 433.20 256.81 C 429.91 252.55 430.54 246.89 431.24 241.90 C 433.20 228.30 439.11 215.77 444.41 203.23 C 445.66 200.39 446.62 196.34 443.79 194.10 C 441.75 194.01 440.12 195.40 438.68 196.64 C 417.54 217.20 396.27 237.70 373.56 256.53 C 367.49 261.15 361.17 267.21 353.01 266.90 C 345.01 266.27 340.12 257.30 341.36 249.89 C 342.99 237.24 348.34 225.43 354.24 214.25 C 365.76 192.56 379.49 172.07 394.84 152.90 Z" />
<path fill="#56534c" opacity="1.00" d=" M 1315.95 171.85 C 1320.51 169.27 1324.40 164.92 1330.00 164.63 C 1336.30 164.00 1341.14 168.74 1346.62 170.91 C 1361.01 172.45 1375.62 171.22 1390.00 173.08 L 1390.00 174.59 C 1384.34 175.93 1377.96 174.98 1373.14 178.84 C 1373.82 181.84 1374.58 184.95 1373.80 188.03 C 1371.51 199.23 1364.94 209.00 1357.62 217.56 C 1347.65 228.98 1336.00 238.81 1324.00 248.02 C 1310.24 258.20 1295.13 267.54 1278.09 270.82 C 1270.53 272.90 1261.32 266.16 1262.81 258.00 C 1264.09 246.23 1269.57 235.45 1275.37 225.31 C 1283.53 211.03 1294.03 198.32 1303.77 185.13 C 1300.82 183.18 1297.53 181.62 1295.11 179.01 C 1293.37 177.43 1294.28 174.33 1296.40 173.63 C 1302.74 171.70 1309.56 173.41 1315.95 171.85 M 1337.51 178.69 C 1331.48 179.73 1324.94 180.91 1320.34 185.25 C 1298.76 205.44 1281.93 230.55 1270.93 257.93 C 1270.11 260.38 1269.74 263.39 1271.34 265.62 C 1273.13 267.82 1276.34 267.63 1278.90 267.30 C 1289.15 265.77 1298.47 260.76 1307.01 255.10 C 1318.59 247.25 1329.03 237.82 1338.96 227.99 C 1349.59 216.90 1359.91 204.28 1363.21 188.90 C 1364.28 185.35 1362.07 181.61 1358.67 180.42 C 1351.94 177.97 1344.54 177.95 1337.51 178.69 Z" />
</g>
</svg>
