<?xml version="1.0" encoding="UTF-8" ?>
<!DOCTYPE svg PUBLIC "-//W3C//DTD SVG 1.1//EN" "http://www.w3.org/Graphics/SVG/1.1/DTD/svg11.dtd">
<svg width="1390pt" height="433pt" viewBox="0 0 1390 433" version="1.1" xmlns="http://www.w3.org/2000/svg">
<g id="#ffffffff">
<path fill="#ffffff" opacity="1.00" d=" M 905.36 12.21 C 913.76 7.41 923.15 4.78 932.12 1.27 C 934.92 0.42 938.35 -0.66 941.05 1.03 C 942.53 2.98 940.72 4.55 938.83 4.89 C 929.94 7.07 922.39 12.58 915.44 18.30 C 903.66 28.23 893.28 39.67 883.26 51.34 C 870.05 66.88 857.69 83.11 845.65 99.56 C 844.54 101.17 843.31 102.90 843.24 104.93 C 843.71 106.98 846.23 106.91 847.90 106.99 C 872.92 107.08 897.95 106.83 922.97 107.17 C 926.72 107.34 930.60 106.82 934.25 107.98 C 932.91 110.78 931.12 114.31 927.50 114.24 C 899.18 115.36 870.90 117.38 842.60 118.80 C 840.08 118.96 837.45 118.91 835.18 120.14 C 832.05 121.60 830.51 124.86 828.63 127.55 C 807.13 159.48 786.85 192.36 770.33 227.17 C 760.07 248.84 750.55 270.88 742.53 293.47 C 732.72 321.53 724.66 351.00 726.26 381.00 C 726.87 393.30 728.80 406.44 736.69 416.37 C 742.46 423.75 751.87 427.45 761.07 427.62 C 775.48 427.97 789.54 423.47 802.44 417.37 C 822.14 407.98 839.31 394.05 854.60 378.62 C 867.51 365.42 880.07 351.69 889.97 336.03 C 897.21 324.43 903.31 311.70 905.12 298.03 C 905.08 290.95 904.36 283.14 899.62 277.50 C 894.96 272.26 887.05 272.52 880.90 274.53 C 877.76 275.46 875.28 278.24 871.91 278.32 C 869.88 278.45 869.35 275.81 870.69 274.65 C 874.13 270.49 879.50 268.86 884.24 266.66 C 882.61 264.44 881.25 261.84 881.74 258.99 C 882.72 247.09 888.22 236.16 894.02 225.93 C 901.84 212.52 911.16 200.04 920.91 187.98 C 921.56 187.04 922.13 186.04 922.61 184.98 C 919.70 183.06 916.42 181.56 914.02 178.98 C 912.25 177.17 913.56 173.75 916.00 173.40 C 921.76 172.17 927.70 172.79 933.55 172.31 C 936.03 172.09 937.67 169.99 939.59 168.64 C 943.52 165.61 948.82 163.52 953.78 165.13 C 958.06 166.32 961.57 169.18 965.52 171.08 C 975.66 171.69 985.84 171.83 996.01 172.14 C 1000.39 172.31 1004.88 172.04 1009.15 173.31 C 1008.52 175.57 1005.91 175.31 1004.08 175.44 C 999.82 175.51 995.09 175.93 992.04 179.28 C 992.61 181.48 993.68 183.68 993.12 186.00 C 991.22 198.76 983.55 209.73 975.20 219.18 C 965.17 230.26 953.67 239.95 941.76 248.94 C 929.02 258.25 915.16 266.70 899.63 270.29 C 905.00 275.11 908.90 281.31 912.22 287.67 C 914.19 291.75 916.16 296.32 915.15 300.94 C 912.60 315.42 905.97 328.84 897.87 340.98 C 887.43 356.49 874.57 370.20 860.89 382.88 C 846.67 395.90 831.51 408.04 814.83 417.79 C 800.30 426.25 784.02 432.67 767.00 432.81 C 754.78 433.07 742.40 429.03 733.13 420.95 C 726.87 415.40 721.11 408.85 718.32 400.83 C 716.16 394.45 715.56 387.66 715.01 380.98 C 713.36 358.97 718.24 337.12 724.39 316.12 C 735.18 280.38 750.26 246.09 766.64 212.59 C 780.11 185.54 795.06 159.14 812.42 134.38 C 814.34 130.90 814.72 126.13 812.14 122.88 C 809.23 119.08 803.72 118.89 800.76 115.15 C 799.59 113.82 799.35 111.76 800.34 110.26 C 802.04 108.84 804.36 108.65 806.46 108.22 C 814.92 107.05 823.48 106.97 832.01 107.02 C 831.85 106.37 831.53 105.07 831.37 104.42 C 849.73 74.91 873.47 49.35 895.82 22.89 C 899.06 19.39 901.79 15.38 905.36 12.21 M 956.50 178.70 C 950.72 179.73 944.45 180.78 939.88 184.76 C 918.02 205.00 901.08 230.32 889.91 257.89 C 889.25 259.80 889.01 261.90 889.50 263.88 C 890.02 266.80 893.64 266.69 895.87 267.50 C 905.69 266.64 914.76 262.16 923.02 257.04 C 935.07 249.42 945.72 239.84 955.97 229.99 C 966.04 219.85 975.66 208.58 980.56 194.94 C 981.46 191.76 982.96 188.41 982.20 185.05 C 981.17 181.49 977.34 179.96 974.04 179.29 C 968.27 178.16 962.32 177.95 956.50 178.70 Z" />
<path fill="#ffffff" opacity="1.00" d=" M 176.61 49.39 C 201.93 41.37 228.47 36.81 255.08 37.32 C 263.75 37.47 272.65 37.77 280.81 41.08 C 296.92 47.45 309.11 61.78 314.83 77.92 C 315.60 80.44 317.17 82.87 316.63 85.61 C 315.33 85.43 313.91 85.02 313.49 83.60 C 309.14 73.69 302.63 64.36 293.41 58.43 C 284.67 52.71 274.30 49.92 263.97 49.04 C 228.14 47.35 192.23 54.17 158.81 66.95 C 134.20 76.27 110.75 88.49 88.51 102.52 C 68.93 115.02 50.27 129.36 35.01 146.98 C 20.33 163.86 9.12 184.58 6.87 207.11 C 5.92 216.20 7.54 226.13 13.80 233.15 C 20.50 240.82 30.68 244.18 40.46 245.73 C 57.95 248.52 75.85 246.65 92.93 242.34 C 127.98 233.50 160.49 217.13 192.25 200.26 C 208.97 191.08 225.57 181.39 240.35 169.25 C 242.94 166.90 245.96 164.84 247.85 161.84 C 253.48 149.45 258.59 136.64 266.43 125.44 C 270.88 120.87 275.99 116.97 280.72 112.67 C 281.67 111.51 283.66 110.76 284.26 112.71 C 285.92 116.64 285.28 121.05 284.03 125.00 C 281.47 133.98 278.43 143.14 272.56 150.55 C 270.81 153.25 267.33 153.31 264.61 154.43 C 254.32 173.84 244.65 193.56 234.69 213.14 C 238.89 217.73 241.29 223.58 243.07 229.47 C 240.22 233.40 237.22 237.27 233.88 240.81 C 229.01 242.90 223.76 243.98 218.73 245.64 C 208.30 264.25 197.37 282.62 184.94 299.98 C 177.60 310.12 169.80 320.03 160.62 328.59 C 153.98 334.86 146.11 339.60 138.30 344.24 C 127.35 350.45 115.60 355.99 102.93 357.33 C 92.19 358.06 80.95 356.95 71.28 351.88 C 63.26 347.72 56.61 340.53 54.14 331.73 C 51.40 321.79 52.86 310.78 58.00 301.85 C 62.64 293.49 70.01 287.03 77.95 281.87 C 102.34 266.59 130.64 259.29 158.51 253.29 C 175.89 249.45 193.37 246.12 210.87 242.88 C 219.33 223.26 228.78 204.09 237.83 184.75 C 239.43 181.15 241.57 177.71 242.17 173.76 C 223.80 186.38 205.33 198.94 185.82 209.78 C 168.11 219.66 149.90 228.68 131.13 236.38 C 110.92 244.55 89.87 251.26 68.10 253.46 C 57.06 254.38 45.70 254.80 34.94 251.66 C 24.73 248.72 14.72 243.42 8.23 234.78 C 2.91 227.73 0.62 218.79 0.57 210.05 C 0.51 201.70 1.82 193.34 4.60 185.46 C 11.02 165.95 22.59 148.46 36.51 133.48 C 54.71 113.90 76.59 98.11 99.48 84.48 C 123.86 70.13 149.60 57.92 176.61 49.39 M 221.50 240.48 C 225.66 238.95 229.85 237.09 233.33 234.32 C 237.29 229.52 237.12 221.70 232.88 217.10 C 229.28 224.99 225.01 232.55 221.50 240.48 M 157.11 259.62 C 137.83 264.43 118.81 270.49 100.72 278.75 C 89.22 284.00 77.89 290.02 68.28 298.32 C 60.47 305.21 54.92 315.43 55.96 326.07 C 56.67 335.92 64.18 344.42 73.45 347.36 C 96.21 355.23 122.31 350.61 141.97 337.04 C 155.71 327.91 166.24 314.91 175.73 301.62 C 187.86 284.41 198.29 266.07 208.11 247.47 C 191.04 251.24 174.00 255.09 157.11 259.62 Z" />
<path fill="#ffffff" opacity="1.00" d=" M 621.17 164.34 C 642.23 152.57 665.52 143.09 689.99 142.98 C 692.22 142.68 694.92 143.55 695.42 146.04 C 696.07 148.63 693.53 150.31 691.96 151.92 C 689.01 154.23 685.82 156.89 681.95 157.20 C 672.70 154.33 662.74 151.26 653.07 154.06 C 636.88 158.80 622.63 168.29 609.15 178.17 C 601.76 183.95 594.18 190.34 590.31 199.13 C 587.97 204.14 588.90 209.91 591.21 214.75 C 594.38 221.73 598.70 228.41 604.61 233.38 C 605.74 234.81 607.32 233.14 608.53 232.70 C 636.50 217.07 667.56 207.60 699.06 202.31 C 696.15 203.43 693.05 203.86 690.04 204.63 C 661.60 211.52 634.80 223.90 609.49 238.40 C 612.44 242.56 615.80 246.82 616.60 252.00 C 616.85 256.13 613.70 259.38 610.68 261.74 C 604.50 266.36 597.24 269.19 590.16 272.09 C 581.83 275.16 572.82 278.07 563.88 276.19 C 559.36 275.68 554.73 278.80 550.36 276.55 C 548.73 274.37 551.41 272.24 552.83 270.83 C 564.81 260.37 578.06 251.48 591.02 242.30 C 585.14 233.44 576.52 225.76 574.55 214.87 C 572.74 206.30 577.56 198.15 583.09 192.02 C 593.79 180.36 607.57 172.16 621.17 164.34 M 571.50 264.46 C 568.87 266.80 565.67 269.19 564.87 272.82 C 572.49 275.20 580.38 271.80 587.54 269.29 C 592.60 266.81 599.53 265.72 601.95 259.94 C 602.91 254.79 598.59 250.78 595.32 247.44 C 587.19 252.83 579.20 258.46 571.50 264.46 Z" />
<path fill="#ffffff" opacity="1.00" d=" M 1171.56 147.36 C 1181.78 144.51 1192.40 142.66 1203.05 143.06 C 1206.05 143.16 1207.79 147.51 1205.36 149.48 C 1202.05 153.01 1197.91 156.50 1192.99 157.21 C 1183.96 154.43 1174.31 151.40 1164.84 153.86 C 1149.47 158.12 1135.88 166.90 1123.00 176.05 C 1115.64 181.47 1108.33 187.38 1103.35 195.16 C 1100.30 199.84 1098.82 205.83 1100.87 211.21 C 1104.00 219.89 1109.11 228.21 1116.42 233.97 C 1117.87 233.86 1119.05 232.84 1120.34 232.25 C 1148.10 216.90 1178.84 207.52 1210.04 202.34 C 1192.79 206.45 1175.70 211.51 1159.46 218.72 C 1146.08 224.48 1133.12 231.17 1120.49 238.41 C 1123.65 243.05 1128.02 247.98 1127.48 253.96 C 1125.51 260.67 1118.56 263.99 1112.84 267.02 C 1101.85 272.00 1090.20 277.47 1077.84 276.65 C 1073.53 275.36 1069.27 277.05 1064.98 277.42 C 1063.44 277.13 1060.86 277.28 1060.77 275.14 C 1061.41 272.38 1064.03 270.79 1065.95 268.94 C 1077.45 259.38 1089.80 250.90 1102.02 242.30 C 1096.14 233.45 1087.54 225.78 1085.55 214.91 C 1083.97 207.64 1087.32 200.41 1091.75 194.82 C 1098.74 186.03 1107.96 179.35 1117.30 173.25 C 1134.26 162.52 1152.17 152.89 1171.56 147.36 M 1081.97 264.90 C 1079.56 267.15 1076.45 269.41 1075.94 272.89 C 1083.78 275.14 1091.81 271.70 1099.12 269.06 C 1104.01 266.68 1110.66 265.54 1112.95 259.94 C 1113.91 254.79 1109.59 250.77 1106.32 247.44 C 1098.00 252.97 1089.80 258.70 1081.97 264.90 Z" />
<path fill="#ffffff" opacity="1.00" d=" M 394.85 152.91 C 396.88 149.99 400.33 147.90 403.99 148.49 C 406.03 148.67 407.28 150.96 406.56 152.81 C 405.37 156.18 402.68 158.68 400.61 161.51 C 389.43 176.03 379.41 191.44 370.25 207.31 C 364.66 217.33 358.87 227.40 355.56 238.45 C 354.32 242.81 352.95 247.34 353.54 251.93 C 353.76 254.35 355.54 256.55 357.97 257.02 C 361.36 257.59 364.60 255.98 367.42 254.28 C 377.44 247.96 386.51 240.28 395.14 232.21 C 413.91 214.98 431.28 196.31 449.04 178.07 C 453.73 173.40 458.42 168.70 463.46 164.40 C 465.55 162.35 468.64 163.97 469.81 166.19 C 471.80 169.74 472.74 174.66 470.16 178.16 C 462.96 189.29 456.65 200.98 450.82 212.88 C 445.94 223.58 440.48 234.35 438.85 246.13 C 438.57 249.01 438.17 252.98 441.09 254.68 C 445.21 255.24 449.22 253.28 453.05 251.98 C 456.98 250.70 460.04 247.46 464.18 246.83 C 464.72 248.61 464.50 250.60 463.20 252.00 C 458.73 257.34 452.88 261.47 446.50 264.22 C 443.52 265.58 440.34 263.74 437.95 262.00 C 433.83 258.60 430.15 253.63 430.70 248.00 C 431.36 231.84 438.62 217.08 444.73 202.42 C 445.81 199.84 446.40 196.08 443.81 194.21 C 441.51 193.81 439.75 195.79 438.15 197.12 C 422.70 212.38 406.86 227.25 390.74 241.79 C 383.33 248.35 375.91 254.91 367.99 260.86 C 363.60 264.07 358.59 267.31 352.90 266.90 C 347.84 266.59 343.90 262.41 342.19 257.89 C 340.37 253.13 341.50 247.92 342.56 243.12 C 345.26 232.18 350.02 221.87 355.44 212.03 C 366.68 191.15 380.02 171.41 394.85 152.91 Z" />
<path fill="#ffffff" opacity="1.00" d=" M 1321.20 168.21 C 1325.59 164.83 1331.79 163.32 1336.94 165.91 C 1341.42 167.37 1344.85 171.81 1349.89 171.32 C 1358.60 171.60 1367.31 171.92 1376.03 172.12 C 1380.69 172.29 1385.44 172.03 1390.00 173.27 L 1390.00 174.36 C 1384.50 176.59 1377.43 174.29 1373.03 179.25 C 1375.32 184.28 1373.63 189.78 1371.91 194.70 C 1367.87 205.43 1360.67 214.60 1352.83 222.82 C 1343.26 232.67 1332.71 241.56 1321.68 249.74 C 1308.55 259.19 1294.17 267.75 1278.08 270.82 C 1271.75 272.51 1264.51 268.27 1262.85 261.97 C 1262.35 256.96 1263.71 251.97 1265.13 247.21 C 1270.75 230.62 1280.77 215.99 1291.03 201.95 C 1295.04 196.16 1300.02 191.07 1303.70 185.05 C 1300.77 183.10 1297.46 181.59 1295.04 178.98 C 1293.21 177.16 1294.58 173.68 1297.08 173.38 C 1302.83 172.16 1308.75 172.82 1314.57 172.29 C 1317.27 171.97 1319.03 169.61 1321.20 168.21 M 1337.52 178.69 C 1331.93 179.68 1325.95 180.70 1321.40 184.32 C 1299.26 204.59 1282.17 230.13 1270.91 257.90 C 1269.84 260.91 1269.65 265.41 1273.08 266.95 C 1277.39 268.32 1281.92 266.75 1286.12 265.64 C 1299.75 261.20 1311.47 252.50 1322.32 243.37 C 1335.18 232.22 1347.90 220.37 1356.60 205.57 C 1359.86 199.84 1362.66 193.65 1363.44 187.05 C 1363.69 183.12 1360.03 180.49 1356.60 179.68 C 1350.38 178.14 1343.85 177.92 1337.52 178.69 Z" />
</g>
</svg>
